<svg width="66" height="67" viewBox="0 0 66 67" fill="none" xmlns="http://www.w3.org/2000/svg">
<g clip-path="url(#clip0_35_16)">
<path d="M28.9468 0C36.942 0 44.176 3.23911 49.4126 8.48106C54.6491 13.7176 57.8937 20.957 57.8937 28.9468C57.8937 34.7934 56.1607 40.2351 53.1754 44.7915L65.7053 58.4443L57.0677 66.3423L44.9804 53.0458C40.3917 56.1067 34.8744 57.8937 28.9468 57.8937C20.9516 57.8937 13.7176 54.6545 8.48106 49.4126C3.23911 44.1706 0 36.9366 0 28.9468C0 20.9516 3.23911 13.7176 8.47567 8.47567C13.7176 3.23911 20.9516 0 28.9468 0ZM29.5461 22.2311L30.3504 19.1701L25.7833 17.5668L35.0579 12.5947L39.9922 21.9989L35.1389 20.4874L34.4641 23.6995L29.5461 22.2311ZM44.9048 44.2624H16.0174C15.4397 44.2624 14.8891 44.0303 14.4788 43.62C14.0901 43.2313 13.8472 42.686 13.8472 42.0922L13.8418 18.9488H17.1133V40.9909H44.9048V44.2624ZM37.7464 28.7849H41.9303C42.1678 28.7849 42.3567 28.9792 42.3567 29.2114V37.9246C42.3567 38.1621 42.1624 38.351 41.9303 38.351H37.7464C37.5089 38.351 37.3199 38.1567 37.3199 37.9246V29.2168C37.3145 28.9792 37.5089 28.7849 37.7464 28.7849ZM21.2593 23.4511H25.4432C25.6807 23.4511 25.8697 23.6455 25.8697 23.8776V37.93C25.8697 38.1675 25.6753 38.3564 25.4432 38.3564H21.2593C21.0218 38.3564 20.8329 38.1621 20.8329 37.93V23.883C20.8329 23.6455 21.0218 23.4511 21.2593 23.4511ZM34.2374 26.28V37.9353C34.2374 38.1729 34.043 38.3618 33.8109 38.3618H29.6324C29.3949 38.3618 29.206 38.1675 29.206 37.9353V24.8386L33.7299 26.1828C33.8001 26.2044 33.8703 26.2206 33.9405 26.2368C34.0322 26.253 34.1348 26.2692 34.2374 26.28ZM47.129 10.7592C42.4755 6.10572 36.0459 3.22831 28.9468 3.22831C21.8478 3.22831 15.4182 6.10572 10.7646 10.7592C6.10572 15.4128 3.22831 21.8424 3.22831 28.9468C3.22831 36.0459 6.10572 42.4755 10.7592 47.129C15.4128 51.7825 21.8424 54.6599 28.9414 54.6599C36.0459 54.6599 42.4701 51.7825 47.1236 47.129C51.7771 42.4755 54.6545 36.0459 54.6545 28.9468C54.6599 21.8424 51.7825 15.4128 47.129 10.7592Z" fill="#00B2CA"/>
</g>
<defs>
<clipPath id="clip0_35_16">
<rect width="65.7" height="66.337" fill="white"/>
</clipPath>
</defs>
</svg>
