<svg width="205" height="211" viewBox="0 0 205 211" fill="none" xmlns="http://www.w3.org/2000/svg">
<path d="M205 0H0V211H205V0Z" fill="#201F23"/>
<path d="M80.801 120.281L94.199 83.502H109.279L122.2 120.281H110.466L103.934 101.629C103.67 100.893 103.406 100.105 103.142 99.2645C102.879 98.4239 102.615 97.5656 102.351 96.6899C102.087 95.7792 101.823 94.9036 101.559 94.0629C101.328 93.1872 101.13 92.3815 100.965 91.646L102.45 91.5934C102.252 92.4691 102.021 93.3273 101.757 94.168C101.526 95.0086 101.279 95.8492 101.015 96.6899C100.784 97.4955 100.52 98.3188 100.223 99.1595C99.926 99.9654 99.646 100.805 99.382 101.681L92.85 120.281H80.801Z" fill="#F16A28"/>
<path d="M143.846 75.2536C150.748 75.2536 156.343 69.6585 156.343 62.7566C156.343 55.8547 150.748 50.2596 143.846 50.2596C136.944 50.2596 131.349 55.8547 131.349 62.7566C131.349 69.6585 136.944 75.2536 143.846 75.2536Z" fill="#F16A28"/>
<path d="M122.298 63.9941H84.247C73.172 63.9941 67.635 63.9941 64.195 67.4344C60.755 70.8747 60.755 76.4119 60.755 87.4862V121.566C60.755 132.64 60.755 138.177 64.195 141.617C67.635 145.058 73.172 145.058 84.247 145.058H144.886" stroke="white" stroke-width="22.3175"/>
<path d="M132.688 145.059C132.688 151.222 137.684 156.218 143.846 156.218C150.009 156.218 155.005 151.222 155.005 145.059H132.688ZM143.846 145.059H155.005V83.0391H143.846H132.688V145.059H143.846Z" fill="white"/>
</svg>
