<svg width="587" height="107" viewBox="0 0 587 107" fill="none" xmlns="http://www.w3.org/2000/svg">
<path d="M141.514 93.753V15.4144H174.304C180.049 15.4144 185.309 16.3843 190.084 18.3241C194.859 20.1893 198.962 22.8752 202.394 26.3818C205.901 29.8883 208.587 34.0291 210.452 38.8039C212.317 43.5788 213.249 48.8387 213.249 54.583C213.249 60.328 212.317 65.625 210.452 70.475C208.587 75.25 205.901 79.391 202.394 82.897C198.962 86.329 194.859 89.015 190.084 90.955C185.309 92.82 180.049 93.753 174.304 93.753H141.514ZM160.539 80.771L157.965 76.966H173.745C176.878 76.966 179.676 76.444 182.138 75.399C184.6 74.28 186.689 72.75 188.405 70.811C190.196 68.871 191.576 66.521 192.546 63.76C193.516 61 194.001 57.941 194.001 54.583C194.001 51.2261 193.516 48.1672 192.546 45.4067C191.576 42.6462 190.196 40.2961 188.405 38.3563C186.689 36.4165 184.6 34.9243 182.138 33.8798C179.676 32.7607 176.878 32.2012 173.745 32.2012H157.629L160.539 28.62V80.771Z" fill="#9C9C9C"/>
<path d="M335.68 94.8719C329.786 94.8719 324.34 93.902 319.341 91.962C314.417 89.948 310.127 87.15 306.471 83.569C302.815 79.913 299.98 75.623 297.966 70.699C296.026 65.7 295.056 60.216 295.056 54.248C295.056 48.4283 296.101 43.0566 298.19 38.1325C300.279 33.2084 303.151 28.9557 306.807 25.3746C310.537 21.7188 314.902 18.8837 319.9 16.8693C324.974 14.8549 330.495 13.8477 336.463 13.8477C340.194 13.8477 343.849 14.3326 347.431 15.3025C351.012 16.2724 354.332 17.7273 357.391 19.6671C360.524 21.5323 363.21 23.7705 365.448 26.3818L353.81 39.6992C352.243 38.0579 350.564 36.6403 348.774 35.4466C347.058 34.1783 345.155 33.2084 343.066 32.5369C340.977 31.8654 338.739 31.5297 336.351 31.5297C333.367 31.5297 330.532 32.0892 327.846 33.2084C325.235 34.2529 322.922 35.7823 320.908 37.7967C318.968 39.7365 317.438 42.124 316.319 44.9591C315.2 47.7942 314.641 50.965 314.641 54.472C314.641 57.904 315.2 61.037 316.319 63.872C317.438 66.633 319.005 69.02 321.019 71.034C323.034 73.049 325.459 74.578 328.294 75.623C331.203 76.667 334.412 77.19 337.918 77.19C340.306 77.19 342.581 76.854 344.745 76.182C346.908 75.511 348.885 74.616 350.676 73.497C352.541 72.303 354.183 70.96 355.6 69.468L364.777 84.016C362.912 86.105 360.412 87.97 357.279 89.612C354.22 91.253 350.788 92.559 346.983 93.529C343.253 94.424 339.485 94.8719 335.68 94.8719Z" fill="#9C9C9C"/>
<path d="M394.807 93.753V32.2012H371.529V15.4144H437.669V32.2012H413.832V93.753H394.807Z" fill="#9C9C9C"/>
<path d="M435.595 93.753L466.595 15.4144H482.71L513.486 93.753H494.237L479.464 54.024C478.868 52.457 478.271 50.7785 477.674 48.9879C477.077 47.1973 476.48 45.3694 475.883 43.5042C475.286 41.5644 474.69 39.6992 474.093 37.9087C473.57 36.0435 473.123 34.3275 472.75 32.7607L476.107 32.6488C475.659 34.514 475.137 36.3419 474.54 38.1325C474.018 39.9231 473.459 41.7136 472.862 43.5042C472.339 45.2202 471.743 46.9735 471.071 48.7641C470.4 50.4801 469.765 52.271 469.169 54.136L454.396 93.753H435.595Z" fill="#9C9C9C"/>
<path d="M556.662 94.8719C550.768 94.8719 545.321 93.902 540.322 91.962C535.398 89.948 531.108 87.15 527.453 83.569C523.797 79.913 520.962 75.623 518.947 70.699C517.008 65.7 516.038 60.216 516.038 54.248C516.038 48.4283 517.082 43.0566 519.171 38.1325C521.26 33.2084 524.133 28.9557 527.788 25.3746C531.519 21.7188 535.883 18.8837 540.882 16.8693C545.955 14.8549 551.476 13.8477 557.445 13.8477C561.175 13.8477 564.831 14.3326 568.412 15.3025C571.993 16.2724 575.313 17.7273 578.372 19.6671C581.506 21.5323 584.192 23.7705 586.43 26.3818L574.791 39.6992C573.225 38.0579 571.546 36.6403 569.755 35.4466C568.039 34.1783 566.137 33.2084 564.048 32.5369C561.959 31.8654 559.72 31.5297 557.333 31.5297C554.349 31.5297 551.514 32.0892 548.828 33.2084C546.216 34.2529 543.904 35.7823 541.889 37.7967C539.949 39.7365 538.42 42.124 537.301 44.9591C536.182 47.7942 535.622 50.965 535.622 54.472C535.622 57.904 536.182 61.037 537.301 63.872C538.42 66.633 539.987 69.02 542.001 71.034C544.016 73.049 546.44 74.578 549.275 75.623C552.185 76.667 555.393 77.19 558.9 77.19C561.287 77.19 563.563 76.854 565.726 76.182C567.89 75.511 569.867 74.616 571.658 73.497C573.523 72.303 575.164 70.96 576.582 69.468L585.759 84.016C583.893 86.105 581.394 87.97 578.261 89.612C575.202 91.253 571.77 92.559 567.965 93.529C564.234 94.424 560.467 94.8719 556.662 94.8719Z" fill="#9C9C9C"/>
<path d="M223.435 24.4941H283.435" stroke="#F16A28" stroke-width="19"/>
<path d="M223.435 83.494H283.435" stroke="#F16A28" stroke-width="19"/>
<path d="M474.209 93.566C479.456 93.566 483.709 89.3127 483.709 84.066C483.709 78.8193 479.456 74.566 474.209 74.566C468.962 74.566 464.709 78.8193 464.709 84.066C464.709 89.3127 468.962 93.566 474.209 93.566Z" fill="#F16A28"/>
<path d="M274.399 63.848C279.646 63.848 283.899 59.5947 283.899 54.348C283.899 49.1013 279.646 44.848 274.399 44.848C269.152 44.848 264.899 49.1013 264.899 54.348C264.899 59.5947 269.152 63.848 274.399 63.848Z" fill="#F16A28"/>
<path d="M260.429 44.8477C258.898 47.6588 258.023 50.8983 258.023 54.348C258.023 57.797 258.898 61.036 260.429 63.848H223.899V44.8477H260.429Z" fill="#F16A28"/>
<path d="M31.2329 70.272L44.631 33.4922H59.711L72.632 70.272H60.898L54.366 51.6191C54.102 50.8836 53.838 50.0954 53.574 49.2548C53.311 48.4141 53.047 47.5559 52.783 46.6802C52.519 45.7695 52.255 44.8938 51.991 44.0531C51.76 43.1774 51.562 42.3718 51.397 41.6362L52.882 41.5836C52.684 42.4593 52.453 43.3175 52.189 44.1582C51.958 44.9989 51.711 45.8395 51.447 46.6802C51.216 47.4859 50.952 48.309 50.655 49.1497C50.358 49.9553 50.078 50.796 49.814 51.6717L43.282 70.272H31.2329Z" fill="#F16A28"/>
<path d="M94.43 25.4411C101.332 25.4411 106.927 19.846 106.927 12.9441C106.927 6.04224 101.332 0.447144 94.43 0.447144C87.5281 0.447144 81.933 6.04224 81.933 12.9441C81.933 19.846 87.5281 25.4411 94.43 25.4411Z" fill="#F16A28"/>
<path d="M72.881 14.1816H34.83C23.7557 14.1816 18.2186 14.1816 14.7782 17.622C11.3379 21.0623 11.3379 26.5995 11.3379 37.6738V71.753C11.3379 82.828 11.3379 88.365 14.7782 91.805C18.2186 95.246 23.7557 95.246 34.83 95.246H95.469" stroke="#9C9C9C" stroke-width="22.3175"/>
<path d="M83.271 95.247C83.271 101.41 88.267 106.406 94.43 106.406C100.593 106.406 105.588 101.41 105.588 95.247H83.271ZM94.43 95.247H105.588V33.2266H94.43H83.271V95.247H94.43Z" fill="#9C9C9C"/>
</svg>
