<svg width="708" height="194" viewBox="0 0 708 194" fill="none" xmlns="http://www.w3.org/2000/svg">
<rect x="0.432129" y="0.224609" width="707.197" height="193.246" fill="white"/>
<path d="M199.514 141.753V63.4144H232.304C238.049 63.4144 243.309 64.3843 248.084 66.3241C252.859 68.1893 256.962 70.8752 260.394 74.3818C263.901 77.8883 266.587 82.0291 268.452 86.8039C270.317 91.5788 271.249 96.8387 271.249 102.583C271.249 108.328 270.317 113.625 268.452 118.475C266.587 123.25 263.901 127.391 260.394 130.897C256.962 134.329 252.859 137.015 248.084 138.955C243.309 140.82 238.049 141.753 232.304 141.753H199.514ZM218.539 128.771L215.965 124.966H231.745C234.878 124.966 237.676 124.444 240.138 123.399C242.6 122.28 244.689 120.75 246.405 118.811C248.196 116.871 249.576 114.521 250.546 111.76C251.516 109 252.001 105.941 252.001 102.583C252.001 99.2261 251.516 96.1672 250.546 93.4067C249.576 90.6462 248.196 88.2961 246.405 86.3563C244.689 84.4165 242.6 82.9243 240.138 81.8798C237.676 80.7607 234.878 80.2012 231.745 80.2012H215.629L218.539 76.62V128.771Z" fill="#49484F"/>
<path d="M393.68 142.872C387.786 142.872 382.34 141.902 377.341 139.962C372.417 137.948 368.127 135.15 364.471 131.569C360.815 127.913 357.98 123.623 355.966 118.699C354.026 113.7 353.056 108.216 353.056 102.248C353.056 96.4283 354.101 91.0566 356.19 86.1325C358.279 81.2084 361.151 76.9557 364.807 73.3746C368.537 69.7188 372.902 66.8837 377.9 64.8693C382.974 62.8549 388.495 61.8477 394.463 61.8477C398.194 61.8477 401.849 62.3326 405.431 63.3025C409.012 64.2724 412.332 65.7273 415.391 67.6671C418.524 69.5323 421.21 71.7705 423.448 74.3818L411.81 87.6992C410.243 86.0579 408.564 84.6403 406.774 83.4466C405.058 82.1783 403.155 81.2084 401.066 80.5369C398.977 79.8654 396.739 79.5297 394.351 79.5297C391.367 79.5297 388.532 80.0892 385.846 81.2084C383.235 82.2529 380.922 83.7823 378.908 85.7967C376.968 87.7365 375.438 90.124 374.319 92.9591C373.2 95.7942 372.641 98.965 372.641 102.472C372.641 105.904 373.2 109.037 374.319 111.872C375.438 114.633 377.005 117.02 379.019 119.034C381.034 121.049 383.459 122.578 386.294 123.623C389.203 124.667 392.412 125.19 395.918 125.19C398.306 125.19 400.581 124.854 402.745 124.182C404.908 123.511 406.885 122.616 408.676 121.497C410.541 120.303 412.183 118.96 413.6 117.468L422.777 132.016C420.912 134.105 418.412 135.97 415.279 137.612C412.22 139.253 408.788 140.559 404.983 141.529C401.253 142.424 397.485 142.872 393.68 142.872Z" fill="#49484F"/>
<path d="M452.807 141.753V80.2012H429.529V63.4144H495.669V80.2012H471.832V141.753H452.807Z" fill="#49484F"/>
<path d="M493.595 141.753L524.595 63.4144H540.71L571.486 141.753H552.237L537.464 102.024C536.868 100.457 536.271 98.7785 535.674 96.9879C535.077 95.1973 534.48 93.3694 533.883 91.5042C533.286 89.5644 532.69 87.6992 532.093 85.9087C531.57 84.0435 531.123 82.3275 530.75 80.7607L534.107 80.6488C533.659 82.514 533.137 84.3419 532.54 86.1325C532.018 87.9231 531.459 89.7136 530.862 91.5042C530.339 93.2202 529.743 94.9735 529.071 96.7641C528.4 98.4801 527.765 100.271 527.169 102.136L512.396 141.753H493.595Z" fill="#49484F"/>
<path d="M614.662 142.872C608.768 142.872 603.321 141.902 598.322 139.962C593.398 137.948 589.108 135.15 585.453 131.569C581.797 127.913 578.962 123.623 576.947 118.699C575.008 113.7 574.038 108.216 574.038 102.248C574.038 96.4283 575.082 91.0566 577.171 86.1325C579.26 81.2084 582.133 76.9557 585.788 73.3746C589.519 69.7188 593.883 66.8837 598.882 64.8693C603.955 62.8549 609.476 61.8477 615.445 61.8477C619.175 61.8477 622.831 62.3326 626.412 63.3025C629.993 64.2724 633.313 65.7273 636.372 67.6671C639.506 69.5323 642.192 71.7705 644.43 74.3818L632.791 87.6992C631.225 86.0579 629.546 84.6403 627.755 83.4466C626.039 82.1783 624.137 81.2084 622.048 80.5369C619.959 79.8654 617.72 79.5297 615.333 79.5297C612.349 79.5297 609.514 80.0892 606.828 81.2084C604.216 82.2529 601.904 83.7823 599.889 85.7967C597.949 87.7365 596.42 90.124 595.301 92.9591C594.182 95.7942 593.622 98.965 593.622 102.472C593.622 105.904 594.182 109.037 595.301 111.872C596.42 114.633 597.987 117.02 600.001 119.034C602.016 121.049 604.44 122.578 607.275 123.623C610.185 124.667 613.393 125.19 616.9 125.19C619.287 125.19 621.563 124.854 623.726 124.182C625.89 123.511 627.867 122.616 629.658 121.497C631.523 120.303 633.164 118.96 634.582 117.468L643.759 132.016C641.893 134.105 639.394 135.97 636.261 137.612C633.202 139.253 629.77 140.559 625.965 141.529C622.234 142.424 618.467 142.872 614.662 142.872Z" fill="#49484F"/>
<path d="M281.435 72.4941H341.435" stroke="#F16A28" stroke-width="19"/>
<path d="M281.435 131.494H341.435" stroke="#F16A28" stroke-width="19"/>
<circle cx="532.209" cy="132.066" r="9.5" fill="#F16A28"/>
<circle cx="332.399" cy="102.348" r="9.5" fill="#F16A28"/>
<path d="M318.429 92.8477C316.898 95.6588 316.023 98.8983 316.023 102.348C316.023 105.797 316.898 109.036 318.429 111.848H281.899V92.8477H318.429Z" fill="#F16A28"/>
<path d="M89.2329 118.272L102.631 81.4922H117.711L130.632 118.272H118.898L112.366 99.6191C112.102 98.8836 111.838 98.0954 111.574 97.2548C111.311 96.4141 111.047 95.5559 110.783 94.6802C110.519 93.7695 110.255 92.8938 109.991 92.0531C109.76 91.1774 109.562 90.3718 109.397 89.6362L110.882 89.5836C110.684 90.4593 110.453 91.3175 110.189 92.1582C109.958 92.9989 109.711 93.8395 109.447 94.6802C109.216 95.4859 108.952 96.309 108.655 97.1497C108.358 97.9553 108.078 98.796 107.814 99.6717L101.282 118.272H89.2329Z" fill="#F16A28"/>
<circle cx="152.43" cy="60.9442" r="12.497" fill="#F16A28"/>
<path d="M130.881 62.1816H92.83C81.7557 62.1816 76.2186 62.1816 72.7782 65.622C69.3379 69.0623 69.3379 74.5995 69.3379 85.6738V119.753C69.3379 130.828 69.3379 136.365 72.7782 139.805C76.2186 143.246 81.7557 143.246 92.83 143.246H153.469" stroke="#49484F" stroke-width="22.3175"/>
<path d="M141.271 143.247C141.271 149.41 146.267 154.406 152.43 154.406C158.593 154.406 163.588 149.41 163.588 143.247L141.271 143.247ZM152.43 143.247L163.588 143.247L163.588 81.2266L152.43 81.2266L141.271 81.2266L141.271 143.247L152.43 143.247Z" fill="#49484F"/>
</svg>
