<svg width="411" height="212" viewBox="0 0 411 212" fill="none" xmlns="http://www.w3.org/2000/svg">
<rect x="0.432129" y="0.224609" width="205" height="211" fill="white"/>
<rect x="205.432" y="0.224609" width="205" height="211" fill="#201F23"/>
<path d="M82.2324 122.506L95.6307 85.7266H110.71L123.631 122.506H111.897L105.366 103.854C105.102 103.118 104.838 102.33 104.574 101.489C104.31 100.648 104.046 99.7903 103.782 98.9146C103.518 98.0039 103.254 97.1282 102.991 96.2875C102.76 95.4118 102.562 94.6061 102.397 93.8706L103.881 93.818C103.683 94.6937 103.452 95.5519 103.188 96.3926C102.958 97.2332 102.71 98.0739 102.446 98.9146C102.215 99.7202 101.951 100.543 101.655 101.384C101.358 102.19 101.077 103.03 100.813 103.906L94.2818 122.506H82.2324Z" fill="#F16A28"/>
<circle cx="143.958" cy="65.4442" r="12.497" fill="#F16A28"/>
<path d="M122.41 66.6816H84.3584C73.2841 66.6816 67.7469 66.6816 64.3066 70.122C60.8662 73.5623 60.8662 79.0995 60.8662 90.1738V124.253C60.8662 135.328 60.8662 140.865 64.3066 144.305C67.7469 147.746 73.2841 147.746 84.3584 147.746H144.997" stroke="#47464C" stroke-width="22.3175"/>
<path d="M132.799 147.747C132.799 153.91 137.795 158.906 143.958 158.906C150.121 158.906 155.117 153.91 155.117 147.747L132.799 147.747ZM143.958 147.747L155.117 147.747L155.117 85.7266L143.958 85.7266L132.799 85.7266L132.799 147.747L143.958 147.747Z" fill="#47464C"/>
<path d="M286.233 120.506L299.631 83.7266H314.711L327.632 120.506H315.898L309.366 101.854C309.102 101.118 308.838 100.33 308.574 99.4891C308.311 98.6485 308.047 97.7903 307.783 96.9146C307.519 96.0039 307.255 95.1282 306.991 94.2875C306.76 93.4118 306.562 92.6061 306.397 91.8706L307.882 91.818C307.684 92.6937 307.453 93.5519 307.189 94.3926C306.958 95.2332 306.711 96.0739 306.447 96.9146C306.216 97.7202 305.952 98.5434 305.655 99.3841C305.358 100.19 305.078 101.03 304.814 101.906L298.282 120.506H286.233Z" fill="#F16A28"/>
<circle cx="349.278" cy="62.9813" r="12.497" fill="#F16A28"/>
<path d="M327.73 64.2188H289.679C278.604 64.2188 273.067 64.2188 269.627 67.6591C266.187 71.0994 266.187 76.6366 266.187 87.7109V121.791C266.187 132.865 266.187 138.402 269.627 141.842C273.067 145.283 278.604 145.283 289.679 145.283H350.318" stroke="white" stroke-width="22.3175"/>
<path d="M338.12 145.284C338.12 151.447 343.116 156.443 349.278 156.443C355.441 156.443 360.437 151.447 360.437 145.284L338.12 145.284ZM349.278 145.284L360.437 145.284L360.437 83.2637L349.278 83.2637L338.12 83.2637L338.12 145.284L349.278 145.284Z" fill="white"/>
</svg>
