<svg width="567" height="194" viewBox="0 0 567 194" fill="none" xmlns="http://www.w3.org/2000/svg">
<rect x="0.432129" y="0.419922" width="565.785" height="193.246" fill="white"/>
<path d="M60.8662 136.436V58.098H93.6563C99.4011 58.098 104.661 59.0679 109.436 61.0077C114.211 62.8729 118.314 65.5588 121.746 69.0653C125.253 72.5719 127.939 76.7126 129.804 81.4875C131.669 86.2624 132.602 91.5223 132.602 97.2671C132.602 103.012 131.669 108.309 129.804 113.159C127.939 117.933 125.253 122.074 121.746 125.581C118.314 129.013 114.211 131.699 109.436 133.638C104.661 135.504 99.4011 136.436 93.6563 136.436H60.8662ZM79.8912 123.454L77.3172 119.649H93.0968C96.2303 119.649 99.0281 119.127 101.49 118.083C103.952 116.964 106.041 115.434 107.757 113.494C109.548 111.554 110.928 109.204 111.898 106.444C112.868 103.683 113.353 100.624 113.353 97.2671C113.353 93.9097 112.868 90.8508 111.898 88.0903C110.928 85.3298 109.548 82.9797 107.757 81.0399C106.041 79.1001 103.952 77.6079 101.49 76.5634C99.0281 75.4443 96.2303 74.8848 93.0968 74.8848H76.9815L79.8912 71.3036V123.454Z" fill="#49484F"/>
<path d="M255.032 137.555C249.138 137.555 243.692 136.585 238.693 134.646C233.769 132.631 229.479 129.833 225.823 126.252C222.167 122.596 219.332 118.306 217.318 113.382C215.378 108.384 214.408 102.9 214.408 96.9313C214.408 91.1119 215.453 85.7402 217.542 80.8161C219.631 75.892 222.503 71.6393 226.159 68.0582C229.889 64.4024 234.254 61.5673 239.252 59.5529C244.326 57.5385 249.847 56.5312 255.815 56.5312C259.546 56.5312 263.201 57.0162 266.783 57.9861C270.364 58.956 273.684 60.4109 276.743 62.3507C279.876 64.2158 282.562 66.4541 284.8 69.0653L273.162 82.3828C271.595 80.7415 269.916 79.3239 268.126 78.1302C266.41 76.8619 264.507 75.892 262.418 75.2205C260.329 74.549 258.091 74.2133 255.703 74.2133C252.719 74.2133 249.884 74.7728 247.198 75.892C244.587 76.9365 242.274 78.4659 240.26 80.4803C238.32 82.4201 236.79 84.8076 235.671 87.6427C234.552 90.4778 233.993 93.6486 233.993 97.1552C233.993 100.587 234.552 103.721 235.671 106.556C236.79 109.316 238.357 111.704 240.372 113.718C242.386 115.732 244.811 117.262 247.646 118.306C250.555 119.351 253.764 119.873 257.27 119.873C259.658 119.873 261.933 119.537 264.097 118.866C266.26 118.195 268.238 117.299 270.028 116.18C271.893 114.986 273.535 113.643 274.952 112.151L284.129 126.7C282.264 128.789 279.764 130.654 276.631 132.295C273.572 133.937 270.14 135.242 266.335 136.212C262.605 137.108 258.837 137.555 255.032 137.555Z" fill="#49484F"/>
<path d="M314.159 136.436V74.8848H290.881V58.098H357.021V74.8848H333.184V136.436H314.159Z" fill="#49484F"/>
<path d="M354.947 136.436L385.947 58.098H402.062L432.838 136.436H413.589L398.817 96.7075C398.22 95.1408 397.623 93.4621 397.026 91.6715C396.429 89.8809 395.832 88.053 395.235 86.1878C394.638 84.248 394.042 82.3828 393.445 80.5922C392.922 78.7271 392.475 77.0111 392.102 75.4443L395.459 75.3324C395.012 77.1976 394.489 79.0255 393.892 80.8161C393.37 82.6067 392.811 84.3972 392.214 86.1878C391.691 87.9038 391.095 89.6571 390.423 91.4477C389.752 93.1637 389.117 94.9542 388.521 96.8194L373.748 136.436H354.947Z" fill="#49484F"/>
<path d="M476.014 137.555C470.12 137.555 464.673 136.585 459.675 134.646C454.75 132.631 450.461 129.833 446.805 126.252C443.149 122.596 440.314 118.306 438.299 113.382C436.36 108.384 435.39 102.9 435.39 96.9313C435.39 91.1119 436.434 85.7402 438.523 80.8161C440.612 75.892 443.485 71.6393 447.14 68.0582C450.871 64.4024 455.235 61.5673 460.234 59.5529C465.307 57.5385 470.828 56.5312 476.797 56.5312C480.527 56.5312 484.183 57.0162 487.764 57.9861C491.346 58.956 494.666 60.4109 497.724 62.3507C500.858 64.2158 503.544 66.4541 505.782 69.0653L494.143 82.3828C492.577 80.7415 490.898 79.3239 489.107 78.1302C487.391 76.8619 485.489 75.892 483.4 75.2205C481.311 74.549 479.073 74.2133 476.685 74.2133C473.701 74.2133 470.866 74.7728 468.18 75.892C465.569 76.9365 463.256 78.4659 461.241 80.4803C459.301 82.4201 457.772 84.8076 456.653 87.6427C455.534 90.4778 454.974 93.6486 454.974 97.1552C454.974 100.587 455.534 103.721 456.653 106.556C457.772 109.316 459.339 111.704 461.353 113.718C463.368 115.732 465.792 117.262 468.627 118.306C471.537 119.351 474.745 119.873 478.252 119.873C480.639 119.873 482.915 119.537 485.078 118.866C487.242 118.195 489.219 117.299 491.01 116.18C492.875 114.986 494.516 113.643 495.934 112.151L505.111 126.7C503.245 128.789 500.746 130.654 497.613 132.295C494.554 133.937 491.122 135.242 487.317 136.212C483.586 137.108 479.819 137.555 476.014 137.555Z" fill="#49484F"/>
<path d="M142.787 67.1777H202.787" stroke="#F16A28" stroke-width="19"/>
<path d="M142.787 126.178H202.787" stroke="#F16A28" stroke-width="19"/>
<circle cx="393.562" cy="126.75" r="9.5" fill="#F16A28"/>
<circle cx="193.752" cy="97.0312" r="9.5" fill="#F16A28"/>
<path d="M179.781 87.5312C178.25 90.3424 177.376 93.5819 177.376 97.0312C177.376 100.481 178.25 103.72 179.781 106.531H143.252V87.5312H179.781Z" fill="#F16A28"/>
</svg>
