<svg width="587" height="252" viewBox="0 0 587 252" fill="none" xmlns="http://www.w3.org/2000/svg">
<rect x="0.432129" y="0.861328" width="586.328" height="250.818" fill="white"/>
<path d="M268.529 174.598V177.336H261.499V200.387H258.132V177.336H251.065V174.598H268.529ZM293.393 189.472C293.393 190.113 293.356 190.791 293.282 191.507H277.076C277.2 193.505 277.878 195.071 279.111 196.206C280.369 197.316 281.886 197.871 283.662 197.871C285.118 197.871 286.326 197.538 287.288 196.872C288.275 196.181 288.966 195.268 289.36 194.134H292.986C292.444 196.082 291.358 197.673 289.73 198.907C288.102 200.115 286.08 200.72 283.662 200.72C281.738 200.72 280.012 200.288 278.482 199.425C276.978 198.561 275.794 197.34 274.93 195.762C274.067 194.158 273.635 192.308 273.635 190.212C273.635 188.115 274.055 186.277 274.893 184.699C275.732 183.12 276.904 181.911 278.408 181.073C279.938 180.209 281.689 179.778 283.662 179.778C285.586 179.778 287.288 180.197 288.768 181.036C290.248 181.874 291.383 183.034 292.172 184.514C292.986 185.969 293.393 187.622 293.393 189.472ZM289.915 188.769C289.915 187.486 289.632 186.388 289.064 185.476C288.497 184.538 287.72 183.835 286.733 183.367C285.771 182.873 284.698 182.627 283.514 182.627C281.812 182.627 280.357 183.169 279.148 184.255C277.964 185.34 277.286 186.845 277.113 188.769H289.915ZM298.8 190.212C298.8 188.115 299.219 186.29 300.058 184.736C300.896 183.157 302.056 181.936 303.536 181.073C305.04 180.209 306.755 179.778 308.679 179.778C311.17 179.778 313.217 180.382 314.821 181.591C316.449 182.799 317.522 184.477 318.04 186.623H314.414C314.068 185.389 313.39 184.415 312.379 183.7C311.392 182.984 310.159 182.627 308.679 182.627C306.755 182.627 305.201 183.293 304.017 184.625C302.833 185.932 302.241 187.794 302.241 190.212C302.241 192.654 302.833 194.541 304.017 195.873C305.201 197.205 306.755 197.871 308.679 197.871C310.159 197.871 311.392 197.525 312.379 196.835C313.365 196.144 314.044 195.157 314.414 193.875H318.04C317.497 195.947 316.412 197.612 314.784 198.87C313.156 200.103 311.121 200.72 308.679 200.72C306.755 200.72 305.04 200.288 303.536 199.425C302.056 198.561 300.896 197.34 300.058 195.762C299.219 194.183 298.8 192.333 298.8 190.212ZM334.816 179.741C336.346 179.741 337.727 180.074 338.96 180.74C340.194 181.381 341.156 182.355 341.846 183.663C342.562 184.97 342.919 186.561 342.919 188.436V200.387H339.589V188.917C339.589 186.894 339.084 185.352 338.072 184.292C337.061 183.206 335.68 182.664 333.928 182.664C332.152 182.664 330.734 183.219 329.673 184.329C328.637 185.439 328.119 187.054 328.119 189.176V200.387H324.752V173.007H328.119V182.997C328.785 181.961 329.698 181.159 330.857 180.592C332.041 180.024 333.361 179.741 334.816 179.741ZM360.518 179.741C362.985 179.741 364.983 180.493 366.512 181.998C368.041 183.478 368.806 185.624 368.806 188.436V200.387H365.476V188.917C365.476 186.894 364.97 185.352 363.959 184.292C362.948 183.206 361.566 182.664 359.815 182.664C358.039 182.664 356.621 183.219 355.56 184.329C354.524 185.439 354.006 187.054 354.006 189.176V200.387H350.639V180.111H354.006V182.997C354.672 181.961 355.572 181.159 356.707 180.592C357.866 180.024 359.137 179.741 360.518 179.741ZM385.369 200.72C383.47 200.72 381.743 200.288 380.189 199.425C378.66 198.561 377.451 197.34 376.563 195.762C375.7 194.158 375.268 192.308 375.268 190.212C375.268 188.14 375.712 186.314 376.6 184.736C377.513 183.132 378.746 181.911 380.3 181.073C381.854 180.209 383.593 179.778 385.517 179.778C387.441 179.778 389.18 180.209 390.734 181.073C392.288 181.911 393.509 183.12 394.397 184.699C395.31 186.277 395.766 188.115 395.766 190.212C395.766 192.308 395.297 194.158 394.36 195.762C393.447 197.34 392.202 198.561 390.623 199.425C389.044 200.288 387.293 200.72 385.369 200.72ZM385.369 197.76C386.578 197.76 387.712 197.476 388.773 196.909C389.834 196.341 390.685 195.49 391.326 194.356C391.992 193.221 392.325 191.84 392.325 190.212C392.325 188.584 392.004 187.202 391.363 186.068C390.722 184.933 389.883 184.094 388.847 183.552C387.811 182.984 386.689 182.701 385.48 182.701C384.247 182.701 383.112 182.984 382.076 183.552C381.065 184.094 380.251 184.933 379.634 186.068C379.017 187.202 378.709 188.584 378.709 190.212C378.709 191.864 379.005 193.258 379.597 194.393C380.214 195.527 381.028 196.378 382.039 196.946C383.05 197.488 384.16 197.76 385.369 197.76ZM405.78 173.007V200.387H402.413V173.007H405.78ZM422.582 200.72C420.682 200.72 418.956 200.288 417.402 199.425C415.872 198.561 414.664 197.34 413.776 195.762C412.912 194.158 412.481 192.308 412.481 190.212C412.481 188.14 412.925 186.314 413.813 184.736C414.725 183.132 415.959 181.911 417.513 181.073C419.067 180.209 420.806 179.778 422.73 179.778C424.654 179.778 426.393 180.209 427.947 181.073C429.501 181.911 430.722 183.12 431.61 184.699C432.522 186.277 432.979 188.115 432.979 190.212C432.979 192.308 432.51 194.158 431.573 195.762C430.66 197.34 429.414 198.561 427.836 199.425C426.257 200.288 424.506 200.72 422.582 200.72ZM422.582 197.76C423.79 197.76 424.925 197.476 425.986 196.909C427.046 196.341 427.897 195.49 428.539 194.356C429.205 193.221 429.538 191.84 429.538 190.212C429.538 188.584 429.217 187.202 428.576 186.068C427.934 184.933 427.096 184.094 426.06 183.552C425.024 182.984 423.901 182.701 422.693 182.701C421.459 182.701 420.325 182.984 419.289 183.552C418.277 184.094 417.463 184.933 416.847 186.068C416.23 187.202 415.922 188.584 415.922 190.212C415.922 191.864 416.218 193.258 416.81 194.393C417.426 195.527 418.24 196.378 419.252 196.946C420.263 197.488 421.373 197.76 422.582 197.76ZM447.988 179.778C449.739 179.778 451.268 180.16 452.576 180.925C453.908 181.689 454.894 182.651 455.536 183.811V180.111H458.94V200.831C458.94 202.681 458.545 204.321 457.756 205.752C456.966 207.207 455.832 208.342 454.352 209.156C452.896 209.97 451.194 210.377 449.246 210.377C446.582 210.377 444.362 209.748 442.586 208.49C440.81 207.232 439.761 205.517 439.441 203.347H442.771C443.141 204.58 443.905 205.567 445.065 206.307C446.224 207.071 447.618 207.454 449.246 207.454C451.096 207.454 452.6 206.874 453.76 205.715C454.944 204.555 455.536 202.927 455.536 200.831V196.576C454.87 197.76 453.883 198.746 452.576 199.536C451.268 200.325 449.739 200.72 447.988 200.72C446.187 200.72 444.547 200.276 443.067 199.388C441.611 198.5 440.464 197.254 439.626 195.651C438.787 194.047 438.368 192.222 438.368 190.175C438.368 188.103 438.787 186.29 439.626 184.736C440.464 183.157 441.611 181.936 443.067 181.073C444.547 180.209 446.187 179.778 447.988 179.778ZM455.536 190.212C455.536 188.682 455.227 187.35 454.611 186.216C453.994 185.081 453.155 184.218 452.095 183.626C451.059 183.009 449.912 182.701 448.654 182.701C447.396 182.701 446.249 182.997 445.213 183.589C444.177 184.181 443.35 185.044 442.734 186.179C442.117 187.313 441.809 188.645 441.809 190.175C441.809 191.729 442.117 193.085 442.734 194.245C443.35 195.379 444.177 196.255 445.213 196.872C446.249 197.464 447.396 197.76 448.654 197.76C449.912 197.76 451.059 197.464 452.095 196.872C453.155 196.255 453.994 195.379 454.611 194.245C455.227 193.085 455.536 191.741 455.536 190.212ZM468.589 176.818C467.947 176.818 467.405 176.596 466.961 176.152C466.517 175.708 466.295 175.165 466.295 174.524C466.295 173.882 466.517 173.34 466.961 172.896C467.405 172.452 467.947 172.23 468.589 172.23C469.205 172.23 469.723 172.452 470.143 172.896C470.587 173.34 470.809 173.882 470.809 174.524C470.809 175.165 470.587 175.708 470.143 176.152C469.723 176.596 469.205 176.818 468.589 176.818ZM470.217 180.111V200.387H466.85V180.111H470.217ZM496.675 189.472C496.675 190.113 496.638 190.791 496.564 191.507H480.358C480.481 193.505 481.16 195.071 482.393 196.206C483.651 197.316 485.168 197.871 486.944 197.871C488.399 197.871 489.608 197.538 490.57 196.872C491.557 196.181 492.247 195.268 492.642 194.134H496.268C495.725 196.082 494.64 197.673 493.012 198.907C491.384 200.115 489.361 200.72 486.944 200.72C485.02 200.72 483.293 200.288 481.764 199.425C480.259 198.561 479.075 197.34 478.212 195.762C477.349 194.158 476.917 192.308 476.917 190.212C476.917 188.115 477.336 186.277 478.175 184.699C479.014 183.12 480.185 181.911 481.69 181.073C483.219 180.209 484.971 179.778 486.944 179.778C488.868 179.778 490.57 180.197 492.05 181.036C493.53 181.874 494.665 183.034 495.454 184.514C496.268 185.969 496.675 187.622 496.675 189.472ZM493.197 188.769C493.197 187.486 492.913 186.388 492.346 185.476C491.779 184.538 491.002 183.835 490.015 183.367C489.053 182.873 487.98 182.627 486.796 182.627C485.094 182.627 483.639 183.169 482.43 184.255C481.246 185.34 480.568 186.845 480.395 188.769H493.197ZM510.517 200.72C508.963 200.72 507.57 200.461 506.336 199.943C505.103 199.4 504.129 198.66 503.413 197.723C502.698 196.761 502.303 195.663 502.229 194.43H505.707C505.806 195.441 506.275 196.267 507.113 196.909C507.977 197.55 509.099 197.871 510.48 197.871C511.763 197.871 512.774 197.587 513.514 197.02C514.254 196.452 514.624 195.737 514.624 194.874C514.624 193.986 514.23 193.332 513.44 192.913C512.651 192.469 511.43 192.037 509.777 191.618C508.273 191.223 507.039 190.828 506.077 190.434C505.14 190.014 504.326 189.41 503.635 188.621C502.969 187.807 502.636 186.746 502.636 185.439C502.636 184.403 502.945 183.453 503.561 182.59C504.178 181.726 505.054 181.048 506.188 180.555C507.323 180.037 508.618 179.778 510.073 179.778C512.318 179.778 514.131 180.345 515.512 181.48C516.894 182.614 517.634 184.168 517.732 186.142H514.365C514.291 185.081 513.86 184.23 513.07 183.589C512.306 182.947 511.27 182.627 509.962 182.627C508.754 182.627 507.792 182.886 507.076 183.404C506.361 183.922 506.003 184.6 506.003 185.439C506.003 186.105 506.213 186.66 506.632 187.104C507.076 187.523 507.619 187.868 508.26 188.14C508.926 188.386 509.839 188.67 510.998 188.991C512.454 189.385 513.638 189.78 514.55 190.175C515.463 190.545 516.24 191.112 516.881 191.877C517.547 192.641 517.893 193.64 517.917 194.874C517.917 195.984 517.609 196.983 516.992 197.871C516.376 198.759 515.5 199.462 514.365 199.98C513.255 200.473 511.973 200.72 510.517 200.72Z" fill="#49484F"/>
<path d="M71.1382 148.495V70.1566H103.928C109.673 70.1566 114.933 71.1265 119.708 73.0663C124.483 74.9315 128.586 77.6174 132.018 81.1239C135.525 84.6305 138.211 88.7712 140.076 93.5461C141.941 98.321 142.874 103.581 142.874 109.326C142.874 115.07 141.941 120.368 140.076 125.217C138.211 129.992 135.525 134.133 132.018 137.639C128.586 141.071 124.483 143.757 119.708 145.697C114.933 147.562 109.673 148.495 103.928 148.495H71.1382ZM90.1632 135.513L87.5892 131.708H103.369C106.502 131.708 109.3 131.186 111.762 130.141C114.224 129.022 116.313 127.493 118.029 125.553C119.82 123.613 121.2 121.263 122.17 118.502C123.14 115.742 123.625 112.683 123.625 109.326C123.625 105.968 123.14 102.909 122.17 100.149C121.2 97.3884 119.82 95.0383 118.029 93.0985C116.313 91.1587 114.224 89.6665 111.762 88.622C109.3 87.5029 106.502 86.9433 103.369 86.9433H87.2535L90.1632 83.3622V135.513Z" fill="#49484F"/>
<path d="M265.304 149.614C259.41 149.614 253.964 148.644 248.965 146.704C244.041 144.69 239.751 141.892 236.095 138.311C232.439 134.655 229.604 130.365 227.59 125.441C225.65 120.442 224.68 114.959 224.68 108.99C224.68 103.171 225.725 97.7988 227.814 92.8747C229.903 87.9506 232.775 83.6979 236.431 80.1167C240.161 76.461 244.526 73.6259 249.524 71.6115C254.598 69.597 260.119 68.5898 266.087 68.5898C269.818 68.5898 273.473 69.0748 277.055 70.0447C280.636 71.0146 283.956 72.4694 287.015 74.4092C290.148 76.2744 292.834 78.5127 295.072 81.1239L283.434 94.4414C281.867 92.8001 280.188 91.3825 278.398 90.1888C276.682 88.9205 274.779 87.9505 272.69 87.2791C270.601 86.6076 268.363 86.2719 265.975 86.2719C262.991 86.2719 260.156 86.8314 257.47 87.9506C254.859 88.9951 252.546 90.5245 250.532 92.5389C248.592 94.4787 247.062 96.8662 245.943 99.7013C244.824 102.536 244.265 105.707 244.265 109.214C244.265 112.646 244.824 115.779 245.943 118.614C247.062 121.375 248.629 123.762 250.643 125.777C252.658 127.791 255.083 129.321 257.918 130.365C260.827 131.41 264.036 131.932 267.542 131.932C269.93 131.932 272.205 131.596 274.369 130.925C276.532 130.253 278.509 129.358 280.3 128.239C282.165 127.045 283.807 125.702 285.224 124.21L294.401 138.758C292.536 140.847 290.036 142.713 286.903 144.354C283.844 145.995 280.412 147.301 276.607 148.271C272.877 149.166 269.109 149.614 265.304 149.614Z" fill="#49484F"/>
<path d="M324.431 148.495V86.9433H301.153V70.1566H367.293V86.9433H343.456V148.495H324.431Z" fill="#49484F"/>
<path d="M365.219 148.495L396.219 70.1566H412.334L443.11 148.495H423.861L409.088 108.766C408.492 107.199 407.895 105.521 407.298 103.73C406.701 101.94 406.104 100.112 405.507 98.2464C404.91 96.3066 404.314 94.4414 403.717 92.6508C403.194 90.7856 402.747 89.0697 402.374 87.5029L405.731 87.391C405.283 89.2562 404.761 91.0841 404.164 92.8747C403.642 94.6652 403.083 96.4558 402.486 98.2464C401.963 99.9624 401.367 101.716 400.695 103.506C400.024 105.222 399.389 107.013 398.793 108.878L384.02 148.495H365.219Z" fill="#49484F"/>
<path d="M486.286 149.614C480.392 149.614 474.945 148.644 469.947 146.704C465.022 144.69 460.732 141.892 457.077 138.311C453.421 134.655 450.586 130.365 448.571 125.441C446.632 120.442 445.662 114.959 445.662 108.99C445.662 103.171 446.706 97.7988 448.795 92.8747C450.884 87.9506 453.757 83.6979 457.412 80.1167C461.143 76.461 465.507 73.6259 470.506 71.6115C475.579 69.597 481.1 68.5898 487.069 68.5898C490.799 68.5898 494.455 69.0748 498.036 70.0447C501.618 71.0146 504.938 72.4694 507.996 74.4092C511.13 76.2744 513.816 78.5127 516.054 81.1239L504.415 94.4414C502.849 92.8001 501.17 91.3825 499.379 90.1888C497.663 88.9205 495.761 87.9505 493.672 87.2791C491.583 86.6076 489.345 86.2719 486.957 86.2719C483.973 86.2719 481.138 86.8314 478.452 87.9506C475.841 88.9951 473.528 90.5245 471.513 92.5389C469.573 94.4787 468.044 96.8662 466.925 99.7013C465.806 102.536 465.246 105.707 465.246 109.214C465.246 112.646 465.806 115.779 466.925 118.614C468.044 121.375 469.611 123.762 471.625 125.777C473.64 127.791 476.064 129.321 478.899 130.365C481.809 131.41 485.017 131.932 488.524 131.932C490.911 131.932 493.187 131.596 495.35 130.925C497.514 130.253 499.491 129.358 501.282 128.239C503.147 127.045 504.788 125.702 506.206 124.21L515.383 138.758C513.517 140.847 511.018 142.713 507.885 144.354C504.826 145.995 501.394 147.301 497.589 148.271C493.858 149.166 490.091 149.614 486.286 149.614Z" fill="#49484F"/>
<path d="M153.059 79.2363H213.059" stroke="#F16A28" stroke-width="19"/>
<path d="M153.059 138.236H213.059" stroke="#F16A28" stroke-width="19"/>
<circle cx="403.833" cy="138.809" r="9.5" fill="#F16A28"/>
<circle cx="204.023" cy="109.09" r="9.5" fill="#F16A28"/>
<path d="M190.053 99.5898C188.522 102.401 187.647 105.64 187.647 109.09C187.647 112.539 188.522 115.779 190.053 118.59H153.523V99.5898H190.053Z" fill="#F16A28"/>
</svg>
